<?xml version="1.0" encoding="utf-8"?><!-- Uploaded to: SVG Repo, www.svgrepo.com, Generator: SVG Repo Mixer Tools -->
<svg width="800px" height="800px" viewBox="0 0 128 128" fill="none" xmlns="http://www.w3.org/2000/svg">
<path fill-rule="evenodd" clip-rule="evenodd" d="M64 38.5C51.1476 38.5 39.4461 39.7982 30.6104 41.1859C21.0474 42.6878 14.5 51.1375 14.5 60.8697V73.7876C14.5 83.5271 20.2029 92.0804 29.675 93.8004C37.6258 95.2442 48.8856 96.5 64 96.5C79.1144 96.5 90.3742 95.2442 98.325 93.8004C107.797 92.0804 113.5 83.5271 113.5 73.7876V60.8697C113.5 51.1375 106.953 42.6878 97.3896 41.1859C88.5539 39.7982 76.8524 38.5 64 38.5ZM30.4552 40.198C39.3279 38.8045 51.0828 37.5 64 37.5C76.9172 37.5 88.6721 38.8045 97.5448 40.198C107.645 41.7843 114.5 50.6981 114.5 60.8697V73.7876C114.5 83.8936 108.558 92.9586 98.5036 94.7843C90.4897 96.2395 79.1699 97.5 64 97.5C48.8301 97.5 37.5103 96.2395 29.4964 94.7843C19.4423 92.9586 13.5 83.8936 13.5 73.7876V60.8697C13.5 50.6981 20.3553 41.7843 30.4552 40.198Z" fill="#000000"/>
<path fill-rule="evenodd" clip-rule="evenodd" d="M64.0001 40.5C51.6644 40.5 40.4332 41.798 31.9523 43.1854C31.6798 43.23 31.4227 43.0452 31.3781 42.7727C31.3335 42.5002 31.5183 42.2431 31.7908 42.1985C40.31 40.8048 51.5969 39.5 64.0001 39.5C76.4032 39.5 87.6901 40.8048 96.2093 42.1985C96.4818 42.2431 96.6666 42.5002 96.622 42.7727C96.5774 43.0452 96.3204 43.23 96.0479 43.1854C87.567 41.798 76.3358 40.5 64.0001 40.5Z" fill="#000000"/>
<path fill-rule="evenodd" clip-rule="evenodd" d="M16 70.2877C16.2761 70.2877 16.5 70.5115 16.5 70.7877C16.5 80.543 21.9838 89.0852 31.0552 90.8011C38.6854 92.2444 49.4924 93.5 64 93.5C78.5076 93.5 89.3146 92.2444 96.9448 90.8011C106.016 89.0852 111.5 80.543 111.5 70.7877C111.5 70.5115 111.724 70.2877 112 70.2877C112.276 70.2877 112.5 70.5115 112.5 70.7877C112.5 80.8777 106.804 89.9538 97.1307 91.7837C89.4349 93.2394 78.5654 94.5 64 94.5C49.4346 94.5 38.5652 93.2394 30.8693 91.7837C21.1956 89.9538 15.5 80.8777 15.5 70.7877C15.5 70.5115 15.7239 70.2877 16 70.2877Z" fill="#000000"/>
<path fill-rule="evenodd" clip-rule="evenodd" d="M37.5 63C37.5 59.4101 40.4101 56.5 44 56.5H84C87.5898 56.5 90.5 59.4101 90.5 63V67C90.5 70.5899 87.5899 73.5 84 73.5H44C40.4102 73.5 37.5 70.5899 37.5 67V63ZM44 57.5C40.9624 57.5 38.5 59.9624 38.5 63V67C38.5 70.0376 40.9624 72.5 44 72.5H84C87.0376 72.5 89.5 70.0376 89.5 67V63C89.5 59.9624 87.0376 57.5 84 57.5H44Z" fill="#000000"/>
<path fill-rule="evenodd" clip-rule="evenodd" d="M40.5 62C40.5 60.6193 41.6193 59.5 43 59.5H51C52.933 59.5 54.5 61.067 54.5 63V67C54.5 68.933 52.933 70.5 51 70.5H43C41.6193 70.5 40.5 69.3807 40.5 68V62ZM43 60.5C42.1716 60.5 41.5 61.1716 41.5 62V68C41.5 68.8284 42.1716 69.5 43 69.5H51C52.3807 69.5 53.5 68.3807 53.5 67V63C53.5 61.6193 52.3807 60.5 51 60.5H43Z" fill="#000000"/>
<path fill-rule="evenodd" clip-rule="evenodd" d="M40.5 62C40.5 60.6193 41.6193 59.5 43 59.5H49C50.3807 59.5 51.5 60.6193 51.5 62V68C51.5 69.3807 50.3807 70.5 49 70.5H43C41.6193 70.5 40.5 69.3807 40.5 68V62ZM43 60.5C42.1716 60.5 41.5 61.1716 41.5 62V68C41.5 68.8284 42.1716 69.5 43 69.5H49C49.8284 69.5 50.5 68.8284 50.5 68V62C50.5 61.1716 49.8284 60.5 49 60.5H43Z" fill="#000000"/>
<path fill-rule="evenodd" clip-rule="evenodd" d="M58.1048 92.6868C58.4114 93.7601 59.3924 94.5 60.5086 94.5H67.4914C68.6076 94.5 69.5885 93.7601 69.8952 92.6868L70.3881 90.9615C71.0269 88.7257 69.3481 86.5 67.0228 86.5H60.9772C58.6518 86.5 56.973 88.7257 57.6118 90.9615L58.1048 92.6868ZM60.5086 93.5C59.8389 93.5 59.2503 93.056 59.0663 92.4121L58.5734 90.6868C58.1171 89.0898 59.3162 87.5 60.9772 87.5H67.0228C68.6837 87.5 69.8829 89.0898 69.4266 90.6868L68.9337 92.4121C68.7497 93.056 68.1611 93.5 67.4914 93.5H60.5086Z" fill="#000000"/>
<path fill-rule="evenodd" clip-rule="evenodd" d="M58 40.882C58.4235 40.035 59.2891 39.5 60.2361 39.5H67.7639C68.7109 39.5 69.5765 40.035 70 40.882C70.8311 42.5442 69.6224 44.5 67.7639 44.5H60.2361C58.3776 44.5 57.1689 42.5442 58 40.882ZM60.2361 40.5C59.6679 40.5 59.1485 40.821 58.8944 41.3292C58.3958 42.3265 59.121 43.5 60.2361 43.5H67.7639C68.879 43.5 69.6043 42.3265 69.1056 41.3292C68.8515 40.821 68.3321 40.5 67.7639 40.5H60.2361Z" fill="#000000"/>
<path fill-rule="evenodd" clip-rule="evenodd" d="M73.5 63C73.5 61.067 75.067 59.5 77 59.5H85C86.3807 59.5 87.5 60.6193 87.5 62V68C87.5 69.3807 86.3807 70.5 85 70.5H77C75.067 70.5 73.5 68.933 73.5 67V63ZM77 60.5C75.6193 60.5 74.5 61.6193 74.5 63V67C74.5 68.3807 75.6193 69.5 77 69.5H85C85.8284 69.5 86.5 68.8284 86.5 68V62C86.5 61.1716 85.8284 60.5 85 60.5H77Z" fill="#000000"/>
<path fill-rule="evenodd" clip-rule="evenodd" d="M76.5 62C76.5 60.6193 77.6193 59.5 79 59.5H85C86.3807 59.5 87.5 60.6193 87.5 62V68C87.5 69.3807 86.3807 70.5 85 70.5H79C77.6193 70.5 76.5 69.3807 76.5 68V62ZM79 60.5C78.1716 60.5 77.5 61.1716 77.5 62V68C77.5 68.8284 78.1716 69.5 79 69.5H85C85.8284 69.5 86.5 68.8284 86.5 68V62C86.5 61.1716 85.8284 60.5 85 60.5H79Z" fill="#000000"/>
<path fill-rule="evenodd" clip-rule="evenodd" d="M46 63.5C45.1716 63.5 44.5 64.1716 44.5 65C44.5 65.8284 45.1716 66.5 46 66.5C46.8284 66.5 47.5 65.8284 47.5 65C47.5 64.1716 46.8284 63.5 46 63.5ZM43.5 65C43.5 63.6193 44.6193 62.5 46 62.5C47.3807 62.5 48.5 63.6193 48.5 65C48.5 66.3807 47.3807 67.5 46 67.5C44.6193 67.5 43.5 66.3807 43.5 65Z" fill="#000000"/>
<path fill-rule="evenodd" clip-rule="evenodd" d="M82 63.5C81.1716 63.5 80.5 64.1716 80.5 65C80.5 65.8284 81.1716 66.5 82 66.5C82.8284 66.5 83.5 65.8284 83.5 65C83.5 64.1716 82.8284 63.5 82 63.5ZM79.5 65C79.5 63.6193 80.6193 62.5 82 62.5C83.3807 62.5 84.5 63.6193 84.5 65C84.5 66.3807 83.3807 67.5 82 67.5C80.6193 67.5 79.5 66.3807 79.5 65Z" fill="#000000"/>
<path fill-rule="evenodd" clip-rule="evenodd" d="M64.2481 25.5C59.5685 25.5 48.1184 26.2207 39.7358 29.0793C31.4582 31.9021 28.6559 37.9793 28.4992 41.0257C28.485 41.3015 28.2499 41.5135 27.9742 41.4993C27.6984 41.4852 27.4863 41.2501 27.5005 40.9743C27.6795 37.4954 30.7715 31.0797 39.413 28.1328C47.9496 25.2217 59.5283 24.5 64.2481 24.5C68.968 24.5 80.5467 25.2217 89.0832 28.1328C97.7307 31.0817 100.321 37.0015 100.499 40.4743C100.513 40.7501 100.301 40.9852 100.026 40.9993C99.7498 41.0135 99.5147 40.8015 99.5005 40.5257C99.3435 37.4733 97.0322 31.9001 88.7605 29.0793C80.3779 26.2207 68.9278 25.5 64.2481 25.5Z" fill="#000000"/>
<path fill-rule="evenodd" clip-rule="evenodd" d="M64.3535 28.0606C64.1583 27.8654 63.8417 27.8654 63.6464 28.0606L58.0606 33.6464C57.7457 33.9614 57.9687 34.5 58.4142 34.5H69.5858C70.0312 34.5 70.2543 33.9614 69.9393 33.6464L64.3535 28.0606ZM62.9393 27.3535C63.5251 26.7677 64.4749 26.7677 65.0606 27.3535L70.6464 32.9393C71.5914 33.8843 70.9221 35.5 69.5858 35.5H58.4142C57.0778 35.5 56.4086 33.8843 57.3535 32.9393L62.9393 27.3535Z" fill="#000000"/>
<path fill-rule="evenodd" clip-rule="evenodd" d="M74 89.5C73.7238 89.5 73.5 89.2761 73.5 89V77C73.5 76.7278 73.7177 76.5057 73.9898 76.5001C78.0847 76.4165 84.6991 76.4666 91.2446 76.8885C97.7701 77.3091 104.296 78.1027 108.173 79.5308C108.432 79.6263 108.565 79.9137 108.469 80.1729C108.374 80.432 108.086 80.5646 107.827 80.4692C104.104 79.0973 97.7132 78.3075 91.1803 77.8865C84.9226 77.4831 78.5976 77.4213 74.5 77.4908V89C74.5 89.2761 74.2761 89.5 74 89.5Z" fill="#000000"/>
<path fill-rule="evenodd" clip-rule="evenodd" d="M54 89.5C54.2761 89.5 54.5 89.2761 54.5 89V77C54.5 76.7278 54.2823 76.5057 54.0102 76.5001C49.9152 76.4165 43.3009 76.4666 36.7553 76.8885C30.2298 77.3091 23.7036 78.1027 19.8271 79.5308C19.568 79.6263 19.4353 79.9137 19.5308 80.1729C19.6263 80.432 19.9137 80.5646 20.1728 80.4692C23.8964 79.0973 30.2868 78.3075 36.8196 77.8865C43.0773 77.4831 49.4023 77.4213 53.5 77.4908V89C53.5 89.2761 53.7238 89.5 54 89.5Z" fill="#000000"/>
<path fill-rule="evenodd" clip-rule="evenodd" d="M54 42.5C54.2761 42.5 54.5 42.7239 54.5 43V53C54.5 53.2761 54.2761 53.5 54 53.5C50.2494 53.5 44.1423 53.5002 37.7891 53.9985C31.4233 54.4977 24.866 55.4937 20.194 57.4608C19.9395 57.568 19.6463 57.4485 19.5392 57.194C19.432 56.9395 19.5514 56.6463 19.8059 56.5392C24.634 54.5063 31.3266 53.5023 37.7109 53.0015C43.8309 52.5215 49.7184 52.5009 53.5 52.5V43C53.5 42.7239 53.7238 42.5 54 42.5Z" fill="#000000"/>
<path fill-rule="evenodd" clip-rule="evenodd" d="M74 42.5C73.7239 42.5 73.5 42.7239 73.5 43V53C73.5 53.2761 73.7239 53.5 74 53.5C77.7506 53.5 83.8577 53.5002 90.2109 53.9985C96.5766 54.4977 103.134 55.4937 107.806 57.4608C108.06 57.568 108.354 57.4485 108.461 57.194C108.568 56.9395 108.449 56.6463 108.194 56.5392C103.366 54.5063 96.6733 53.5023 90.2891 53.0015C84.1691 52.5215 78.2815 52.5009 74.5 52.5V43C74.5 42.7239 74.2761 42.5 74 42.5Z" fill="#000000"/>
<path fill-rule="evenodd" clip-rule="evenodd" d="M118.519 59.2285C118.316 62.0782 118.026 67.8226 119.147 74.9557C119.985 80.2846 119.244 85.7126 117.84 90.3229C116.499 94.7232 114.568 98.3343 112.875 100.377C112.853 100.327 112.833 100.259 112.819 100.171C112.767 99.8502 112.83 99.4569 112.947 99.2236C116.969 91.1797 119.016 83.0694 117.994 76.424C117.203 71.2832 117.157 62.825 117.479 59.2423C117.713 59.0618 117.928 59.0398 118.11 59.0688C118.262 59.093 118.405 59.1567 118.519 59.2285ZM118.268 58.0812C117.749 57.9987 117.164 58.1289 116.646 58.6465C116.565 58.7282 116.514 58.8358 116.502 58.9508C116.153 62.4879 116.186 71.2489 117.006 76.576C117.983 82.9306 116.031 90.8203 112.053 98.7764C111.836 99.2098 111.749 99.8165 111.831 100.329C111.873 100.588 111.965 100.87 112.15 101.097C112.349 101.341 112.64 101.5 113 101.5C113.143 101.5 113.28 101.439 113.374 101.331C115.247 99.2129 117.362 95.3222 118.796 90.6143C120.233 85.8987 121.002 80.3145 120.135 74.8004C118.995 67.548 119.336 61.7523 119.536 59.0367C119.547 58.8885 119.491 58.7432 119.384 58.64C119.155 58.4189 118.756 58.1591 118.268 58.0812Z" fill="#000000"/>
<path fill-rule="evenodd" clip-rule="evenodd" d="M112.917 79.7356C112.771 79.97 112.842 80.2784 113.077 80.4244C115.161 81.7232 116.158 84.5641 115.031 89.6829C113.896 94.8383 112.117 98.6654 110.408 100.405C109.032 101.805 106.253 103.473 102.405 101.793C100.252 100.853 99.2364 99.4523 98.7963 98.1392C98.3486 96.8034 98.4874 95.5281 98.6966 94.8703C98.7803 94.6071 98.6348 94.326 98.3716 94.2423C98.1085 94.1586 97.8273 94.3041 97.7436 94.5672C97.4773 95.4048 97.3259 96.8988 97.8481 98.457C98.378 100.038 99.5924 101.656 102.005 102.709C106.351 104.608 109.558 102.697 111.121 101.106C113.031 99.1627 114.86 95.1098 116.008 89.8979C117.163 84.6492 116.246 81.2206 113.605 79.5756C113.371 79.4296 113.063 79.5012 112.917 79.7356Z" fill="#000000"/>
<path fill-rule="evenodd" clip-rule="evenodd" d="M9.48028 59.2285C9.68354 62.0782 9.97349 67.8226 8.85259 74.9557C8.01518 80.2846 8.75573 85.7126 10.1602 90.3229C11.5006 94.7232 13.4322 98.3343 15.1251 100.377C15.1466 100.327 15.1671 100.259 15.1811 100.171C15.2325 99.8502 15.1693 99.4569 15.0526 99.2236C11.0307 91.1797 8.9833 83.0694 10.0057 76.424C10.7966 71.2832 10.843 62.825 10.5205 59.2423C10.2866 59.0618 10.0713 59.0398 9.88948 59.0688C9.73728 59.093 9.59446 59.1567 9.48028 59.2285ZM9.73214 58.0812C10.2504 57.9987 10.8358 58.1289 11.3534 58.6465C11.4352 58.7282 11.4861 58.8358 11.4974 58.9508C11.8469 62.4879 11.8136 71.2489 10.994 76.576C10.0164 82.9306 11.9691 90.8203 15.9471 98.7764C16.1638 99.2098 16.2506 99.8165 16.1686 100.329C16.1271 100.588 16.0351 100.87 15.8499 101.097C15.6509 101.341 15.3599 101.5 14.9999 101.5C14.8566 101.5 14.7202 101.439 14.6253 101.331C12.7526 99.2129 10.6378 95.3222 9.20356 90.6143C7.76704 85.8987 6.99821 80.3145 7.86471 74.8004C9.00437 67.548 8.6638 61.7523 8.46375 59.0367C8.45283 58.8885 8.5084 58.7432 8.6154 58.64C8.84477 58.4189 9.24372 58.1591 9.73214 58.0812Z" fill="#000000"/>
<path fill-rule="evenodd" clip-rule="evenodd" d="M15.0832 79.7356C15.2292 79.97 15.1576 80.2784 14.9232 80.4244C12.8386 81.7232 11.8417 84.5641 12.9686 89.6829C14.1036 94.8383 15.8824 98.6654 17.5922 100.405C18.9679 101.805 21.7472 103.473 25.5949 101.793C27.7477 100.853 28.7633 99.4523 29.2034 98.1392C29.6511 96.8034 29.5123 95.5281 29.3032 94.8703C29.2195 94.6071 29.365 94.326 29.6281 94.2423C29.8913 94.1586 30.1724 94.3041 30.2561 94.5672C30.5225 95.4048 30.6739 96.8988 30.1516 98.457C29.6218 100.038 28.4073 101.656 25.9951 102.709C21.6482 104.608 18.4419 102.697 16.8789 101.106C14.9691 99.1627 13.1395 95.1098 11.992 89.8979C10.8364 84.6492 11.7541 81.2206 14.3944 79.5756C14.6288 79.4296 14.9372 79.5012 15.0832 79.7356Z" fill="#000000"/>
<path fill-rule="evenodd" clip-rule="evenodd" d="M119.242 87.0298C118.707 86.8959 118.164 87.2217 118.03 87.7575C117.702 89.0686 116.764 92.1169 115.642 93.9855C115.358 94.4591 115.512 95.0733 115.985 95.3575C116.459 95.6416 117.073 95.4881 117.357 95.0145C118.636 92.8831 119.631 89.5981 119.97 88.2425C120.104 87.7067 119.778 87.1638 119.242 87.0298Z" fill="#000000"/>
<path fill-rule="evenodd" clip-rule="evenodd" d="M8.75733 87.0298C9.29313 86.8959 9.83606 87.2217 9.97001 87.7575C10.2978 89.0686 11.2362 92.1169 12.3574 93.9855C12.6415 94.4591 12.4879 95.0733 12.0144 95.3575C11.5408 95.6416 10.9265 95.4881 10.6424 95.0145C9.36354 92.8831 8.36861 89.5981 8.02973 88.2425C7.89578 87.7067 8.22154 87.1638 8.75733 87.0298Z" fill="#000000"/>
</svg>